<?xml version="1.0" encoding="UTF-8" standalone="no"?>
<!-- Created with Inkscape (http://www.inkscape.org/) -->

<svg
   xmlns:dc="http://purl.org/dc/elements/1.1/"
   xmlns:cc="http://creativecommons.org/ns#"
   xmlns:rdf="http://www.w3.org/1999/02/22-rdf-syntax-ns#"
   xmlns:svg="http://www.w3.org/2000/svg"
   xmlns="http://www.w3.org/2000/svg"
   xmlns:sodipodi="http://sodipodi.sourceforge.net/DTD/sodipodi-0.dtd"
   xmlns:inkscape="http://www.inkscape.org/namespaces/inkscape"
   width="210mm"
   height="297mm"
   id="svg3047"
   version="1.1"
   inkscape:version="0.48.4 r9939"
   sodipodi:docname="icon_4932.svg">
  <defs
     id="defs3049" />
  <sodipodi:namedview
     id="base"
     pagecolor="#ffffff"
     bordercolor="#666666"
     borderopacity="1.0"
     inkscape:pageopacity="0.0"
     inkscape:pageshadow="2"
     inkscape:zoom="1.979899"
     inkscape:cx="440.95935"
     inkscape:cy="716.96672"
     inkscape:document-units="px"
     inkscape:current-layer="layer1"
     showgrid="false"
     inkscape:window-width="1301"
     inkscape:window-height="744"
     inkscape:window-x="65"
     inkscape:window-y="24"
     inkscape:window-maximized="1" />
  <metadata
     id="metadata3052">
    <rdf:RDF>
      <cc:Work
         rdf:about="">
        <dc:format>image/svg+xml</dc:format>
        <dc:type
           rdf:resource="http://purl.org/dc/dcmitype/StillImage" />
        <dc:title />
      </cc:Work>
    </rdf:RDF>
  </metadata>
  <g
     inkscape:label="Capa 1"
     inkscape:groupmode="layer"
     id="layer1">
    <path
       inkscape:connector-curvature="0"
       d="m 359.99701,81.533429 c 3.49089,0 6.98818,1.5245 9.65581,4.56509 l 81.92456,93.533841 c 1.95287,2.22359 3.76533,3.28484 5.27784,3.28484 2.63575,0 4.378,-3.20906 4.378,-9.11334 v -22.56435 c 0,-9.29864 5.71817,-16.84535 12.76381,-16.84535 h 31.87764 c 7.04563,0 12.7638,7.54671 12.7638,16.84535 v 88.10121 c 0,9.29862 4.32055,21.78104 9.65584,27.87064 l 39.79119,45.4319 c 5.33526,6.0896 3.93764,11.0253 -3.10798,11.0253 h -33.57523 c -7.04562,0 -12.76382,6.67918 -12.76382,14.91655 0,8.2374 0,14.91657 0,14.91657 v 221.42375 c 0,9.29864 -5.71817,16.84536 -12.7638,16.84536 H 214.12573 c -7.04563,0 -12.76382,-7.54672 -12.76382,-16.84536 v -234.4031 c 0,-9.29864 -5.71819,-16.84535 -12.76381,-16.84535 h -33.57523 c -7.04563,0 -8.44325,-4.93569 -3.10798,-11.02529 L 350.34756,86.106939 c 2.66125,-3.05741 6.15855,-4.57351 9.64945,-4.57351 m 0,-25.26803 c -8.23906,0 -16.11433,3.80706 -22.17713,10.71366 L 139.3872,293.54064 c -13.04462,14.88287 -9.80899,31.09653 -8.50708,35.71216 1.30191,4.62404 6.89246,19.6838 24.14275,19.6838 h 27.19332 V 574.917 c 0,23.22133 14.31461,42.1134 31.90954,42.1134 h 291.74894 c 17.59491,0 31.90953,-18.89207 31.90953,-42.1134 V 353.49325 348.9366 h 27.19332 c 17.25029,0 22.84084,-15.05976 24.14275,-19.6838 1.30191,-4.61563 4.53753,-20.83772 -8.51346,-35.72059 L 540.82198,248.1003 c -1.21255,-1.51609 -2.9612,-6.56127 -3.03778,-8.81012 v -88.05067 c 0,-23.22132 -14.31462,-42.11338 -31.90953,-42.11338 h -31.87764 c -13.92533,0 -25.79567,11.83386 -30.14176,28.27491 L 382.18052,66.987479 c -6.06919,-6.91502 -13.94447,-10.72208 -22.18351,-10.72208 l 0,0 z"
       id="path3" />
    <rect
       style="fill:#000000;stroke:#000000;stroke-width:4.75462246"
       id="puerta "
       width="80.809502"
       height="115.09701"
       x="319.59525"
       y="476.04843" />
    <path
       d="m 494.28042,346.03588 v -92.86346 c 0,-18.40234 -14.83331,-33.32934 -33.12788,-33.32934 -18.30453,0 -33.13984,14.927 -33.13984,33.32934 v 92.86346 c -6.85099,7.83245 -11.04594,18.07438 -11.04594,29.32614 0,24.54309 19.7837,44.44112 44.18578,44.44112 24.40203,0 44.17378,-19.89803 44.17378,-44.44112 -0.002,-11.25176 -4.18695,-21.49369 -11.0459,-29.32614 z m -33.12788,51.5477 c -12.20106,0 -22.09189,-9.95001 -22.09189,-22.21956 0,-8.20236 4.46928,-15.28894 11.04594,-19.13819 v -23.83921 -56.99863 -22.21557 c 0,-6.13279 4.94244,-11.10978 11.04595,-11.10978 6.09356,0 11.04594,4.97699 11.04594,11.10978 v 22.21557 56.99863 23.83721 c 6.57066,3.85125 11.0479,10.93783 11.0479,19.13819 -0.002,12.27155 -9.89483,22.22156 -22.09384,22.22156 z"
       id="path3-6"
       inkscape:connector-curvature="0"
       style="fill:#000000" />
    <path
       sodipodi:type="arc"
       style="fill:#ff0000"
       id="path3044"
       sodipodi:cx="541.42859"
       sodipodi:cy="619.50507"
       sodipodi:rx="27.142857"
       sodipodi:ry="27.142857"
       d="m 568.57145,619.50507 a 27.142857,27.142857 0 1 1 -54.28572,0 27.142857,27.142857 0 1 1 54.28572,0 z"
       transform="matrix(0.7224753,0,0,0.69278558,70.460896,-53.938211)" />
    <rect
       style="fill:#ff0000"
       id="temperatura"
       width="12.38529"
       height="108.8663"
       x="-464.85062"
       y="-361.80734"
       transform="matrix(-0.99996682,0.00814574,-0.00814574,-0.99996682,0,0)" />
    <rect
       style="fill:#000000"
       id="rect3050"
       width="30.963228"
       height="27.711424"
       x="283.62405"
       y="219.86403" />
    <path
       sodipodi:type="arc"
       style="fill:#000000"
       id="bombilla"
       sodipodi:cx="-728.57141"
       sodipodi:cy="138.07646"
       sodipodi:rx="40"
       sodipodi:ry="37.142857"
       d="m -688.57141,138.07646 a 40,37.142857 0 1 1 -80,0 40,37.142857 0 1 1 80,0 z"
       transform="matrix(0.748278,0,0,0.77272237,844.27967,161.66426)" />
  </g>
</svg>
